<mxfile host="drawio-plugin" modified="2021-12-04T18:02:48.695Z" agent="5.0 (Windows NT 6.2; Win64; x64) AppleWebKit/537.36 (KHTML, like Gecko) Chrome/89.0.4389.114 Safari/537.36" etag="lstquhil9nrpg3J5rXZZ" version="14.7.4" type="embed" pages="2"><diagram id="8rdQHDwS0ARLo1Hh1Swg" name="Entities"><mxGraphModel dx="1831" dy="743" grid="1" gridSize="10" guides="1" tooltips="1" connect="1" arrows="1" fold="1" page="1" pageScale="1" pageWidth="900" pageHeight="1600" math="0" shadow="0"><root><mxCell id="0"/><mxCell id="1" parent="0"/><mxCell id="2" value="organization" style="shape=table;html=1;whiteSpace=wrap;startSize=30;container=1;collapsible=0;childLayout=tableLayout;fixedRows=1;rowLines=0;fontStyle=1;align=center;" parent="1" vertex="1"><mxGeometry x="40" y="40" width="200" height="270" as="geometry"/></mxCell><mxCell id="3" value="" style="shape=partialRectangle;html=1;whiteSpace=wrap;collapsible=0;dropTarget=0;pointerEvents=0;fillColor=none;top=0;left=0;bottom=1;right=0;points=[[0,0.5],[1,0.5]];portConstraint=eastwest;" parent="2" vertex="1"><mxGeometry y="30" width="200" height="30" as="geometry"/></mxCell><mxCell id="4" value="1" style="shape=partialRectangle;html=1;whiteSpace=wrap;connectable=0;fillColor=none;top=0;left=0;bottom=0;right=0;overflow=hidden;" parent="3" vertex="1"><mxGeometry width="44" height="30" as="geometry"/></mxCell><mxCell id="5" value="id" style="shape=partialRectangle;html=1;whiteSpace=wrap;connectable=0;fillColor=none;top=0;left=0;bottom=0;right=0;align=left;spacingLeft=6;overflow=hidden;" parent="3" vertex="1"><mxGeometry x="44" width="156" height="30" as="geometry"/></mxCell><mxCell id="6" value="" style="shape=partialRectangle;html=1;whiteSpace=wrap;collapsible=0;dropTarget=0;pointerEvents=0;fillColor=none;top=0;left=0;bottom=0;right=0;points=[[0,0.5],[1,0.5]];portConstraint=eastwest;" parent="2" vertex="1"><mxGeometry y="60" width="200" height="30" as="geometry"/></mxCell><mxCell id="7" value="2" style="shape=partialRectangle;html=1;whiteSpace=wrap;connectable=0;fillColor=none;top=0;left=0;bottom=0;right=0;overflow=hidden;" parent="6" vertex="1"><mxGeometry width="44" height="30" as="geometry"/></mxCell><mxCell id="8" value="name" style="shape=partialRectangle;html=1;whiteSpace=wrap;connectable=0;fillColor=none;top=0;left=0;bottom=0;right=0;align=left;spacingLeft=6;overflow=hidden;" parent="6" vertex="1"><mxGeometry x="44" width="156" height="30" as="geometry"/></mxCell><mxCell id="9" value="" style="shape=partialRectangle;html=1;whiteSpace=wrap;collapsible=0;dropTarget=0;pointerEvents=0;fillColor=none;top=0;left=0;bottom=0;right=0;points=[[0,0.5],[1,0.5]];portConstraint=eastwest;" parent="2" vertex="1"><mxGeometry y="90" width="200" height="30" as="geometry"/></mxCell><mxCell id="10" value="3" style="shape=partialRectangle;html=1;whiteSpace=wrap;connectable=0;fillColor=none;top=0;left=0;bottom=0;right=0;overflow=hidden;" parent="9" vertex="1"><mxGeometry width="44" height="30" as="geometry"/></mxCell><mxCell id="11" value="full_name" style="shape=partialRectangle;html=1;whiteSpace=wrap;connectable=0;fillColor=none;top=0;left=0;bottom=0;right=0;align=left;spacingLeft=6;overflow=hidden;" parent="9" vertex="1"><mxGeometry x="44" width="156" height="30" as="geometry"/></mxCell><mxCell id="13" value="" style="shape=partialRectangle;html=1;whiteSpace=wrap;collapsible=0;dropTarget=0;pointerEvents=0;fillColor=none;top=0;left=0;bottom=0;right=0;points=[[0,0.5],[1,0.5]];portConstraint=eastwest;" parent="2" vertex="1"><mxGeometry y="120" width="200" height="30" as="geometry"/></mxCell><mxCell id="14" value="4" style="shape=partialRectangle;html=1;whiteSpace=wrap;connectable=0;fillColor=none;top=0;left=0;bottom=0;right=0;overflow=hidden;" parent="13" vertex="1"><mxGeometry width="44" height="30" as="geometry"/></mxCell><mxCell id="15" value="inn" style="shape=partialRectangle;html=1;whiteSpace=wrap;connectable=0;fillColor=none;top=0;left=0;bottom=0;right=0;align=left;spacingLeft=6;overflow=hidden;" parent="13" vertex="1"><mxGeometry x="44" width="156" height="30" as="geometry"/></mxCell><mxCell id="16" value="" style="shape=partialRectangle;html=1;whiteSpace=wrap;collapsible=0;dropTarget=0;pointerEvents=0;fillColor=none;top=0;left=0;bottom=1;right=0;points=[[0,0.5],[1,0.5]];portConstraint=eastwest;" parent="2" vertex="1"><mxGeometry y="150" width="200" height="30" as="geometry"/></mxCell><mxCell id="17" value="5" style="shape=partialRectangle;html=1;whiteSpace=wrap;connectable=0;fillColor=none;top=0;left=0;bottom=0;right=0;overflow=hidden;" parent="16" vertex="1"><mxGeometry width="44" height="30" as="geometry"/></mxCell><mxCell id="18" value="kpp" style="shape=partialRectangle;html=1;whiteSpace=wrap;connectable=0;fillColor=none;top=0;left=0;bottom=0;right=0;align=left;spacingLeft=6;overflow=hidden;" parent="16" vertex="1"><mxGeometry x="44" width="156" height="30" as="geometry"/></mxCell><mxCell id="19" value="" style="shape=partialRectangle;html=1;whiteSpace=wrap;collapsible=0;dropTarget=0;pointerEvents=0;fillColor=none;top=0;left=0;bottom=0;right=0;points=[[0,0.5],[1,0.5]];portConstraint=eastwest;" parent="2" vertex="1"><mxGeometry y="180" width="200" height="30" as="geometry"/></mxCell><mxCell id="20" value="6" style="shape=partialRectangle;html=1;whiteSpace=wrap;connectable=0;fillColor=none;top=0;left=0;bottom=0;right=0;overflow=hidden;" parent="19" vertex="1"><mxGeometry width="44" height="30" as="geometry"/></mxCell><mxCell id="21" value="address" style="shape=partialRectangle;html=1;whiteSpace=wrap;connectable=0;fillColor=none;top=0;left=0;bottom=0;right=0;align=left;spacingLeft=6;overflow=hidden;" parent="19" vertex="1"><mxGeometry x="44" width="156" height="30" as="geometry"/></mxCell><mxCell id="22" value="" style="shape=partialRectangle;html=1;whiteSpace=wrap;collapsible=0;dropTarget=0;pointerEvents=0;fillColor=none;top=0;left=0;bottom=0;right=0;points=[[0,0.5],[1,0.5]];portConstraint=eastwest;" parent="2" vertex="1"><mxGeometry y="210" width="200" height="30" as="geometry"/></mxCell><mxCell id="23" value="7" style="shape=partialRectangle;html=1;whiteSpace=wrap;connectable=0;fillColor=none;top=0;left=0;bottom=0;right=0;overflow=hidden;" parent="22" vertex="1"><mxGeometry width="44" height="30" as="geometry"/></mxCell><mxCell id="24" value="phone" style="shape=partialRectangle;html=1;whiteSpace=wrap;connectable=0;fillColor=none;top=0;left=0;bottom=0;right=0;align=left;spacingLeft=6;overflow=hidden;" parent="22" vertex="1"><mxGeometry x="44" width="156" height="30" as="geometry"/></mxCell><mxCell id="25" value="" style="shape=partialRectangle;html=1;whiteSpace=wrap;collapsible=0;dropTarget=0;pointerEvents=0;fillColor=none;top=0;left=0;bottom=0;right=0;points=[[0,0.5],[1,0.5]];portConstraint=eastwest;" parent="2" vertex="1"><mxGeometry y="240" width="200" height="30" as="geometry"/></mxCell><mxCell id="26" value="8" style="shape=partialRectangle;html=1;whiteSpace=wrap;connectable=0;fillColor=none;top=0;left=0;bottom=0;right=0;overflow=hidden;" parent="25" vertex="1"><mxGeometry width="44" height="30" as="geometry"/></mxCell><mxCell id="27" value="is_active" style="shape=partialRectangle;html=1;whiteSpace=wrap;connectable=0;fillColor=none;top=0;left=0;bottom=0;right=0;align=left;spacingLeft=6;overflow=hidden;" parent="25" vertex="1"><mxGeometry x="44" width="156" height="30" as="geometry"/></mxCell><mxCell id="28" value="office" style="shape=table;html=1;whiteSpace=wrap;startSize=30;container=1;collapsible=0;childLayout=tableLayout;fixedRows=1;rowLines=0;fontStyle=1;align=center;" parent="1" vertex="1"><mxGeometry x="360" y="40" width="200" height="210" as="geometry"/></mxCell><mxCell id="29" value="" style="shape=partialRectangle;html=1;whiteSpace=wrap;collapsible=0;dropTarget=0;pointerEvents=0;fillColor=none;top=0;left=0;bottom=1;right=0;points=[[0,0.5],[1,0.5]];portConstraint=eastwest;" parent="28" vertex="1"><mxGeometry y="30" width="200" height="30" as="geometry"/></mxCell><mxCell id="30" value="1" style="shape=partialRectangle;html=1;whiteSpace=wrap;connectable=0;fillColor=none;top=0;left=0;bottom=0;right=0;overflow=hidden;" parent="29" vertex="1"><mxGeometry width="44" height="30" as="geometry"/></mxCell><mxCell id="31" value="id" style="shape=partialRectangle;html=1;whiteSpace=wrap;connectable=0;fillColor=none;top=0;left=0;bottom=0;right=0;align=left;spacingLeft=6;overflow=hidden;" parent="29" vertex="1"><mxGeometry x="44" width="156" height="30" as="geometry"/></mxCell><mxCell id="32" value="" style="shape=partialRectangle;html=1;whiteSpace=wrap;collapsible=0;dropTarget=0;pointerEvents=0;fillColor=none;top=0;left=0;bottom=0;right=0;points=[[0,0.5],[1,0.5]];portConstraint=eastwest;" parent="28" vertex="1"><mxGeometry y="60" width="200" height="30" as="geometry"/></mxCell><mxCell id="33" value="2" style="shape=partialRectangle;html=1;whiteSpace=wrap;connectable=0;fillColor=none;top=0;left=0;bottom=0;right=0;overflow=hidden;" parent="32" vertex="1"><mxGeometry width="44" height="30" as="geometry"/></mxCell><mxCell id="34" value="organization_id" style="shape=partialRectangle;html=1;whiteSpace=wrap;connectable=0;fillColor=none;top=0;left=0;bottom=0;right=0;align=left;spacingLeft=6;overflow=hidden;" parent="32" vertex="1"><mxGeometry x="44" width="156" height="30" as="geometry"/></mxCell><mxCell id="35" value="" style="shape=partialRectangle;html=1;whiteSpace=wrap;collapsible=0;dropTarget=0;pointerEvents=0;fillColor=none;top=0;left=0;bottom=0;right=0;points=[[0,0.5],[1,0.5]];portConstraint=eastwest;" parent="28" vertex="1"><mxGeometry y="90" width="200" height="30" as="geometry"/></mxCell><mxCell id="36" value="3" style="shape=partialRectangle;html=1;whiteSpace=wrap;connectable=0;fillColor=none;top=0;left=0;bottom=0;right=0;overflow=hidden;" parent="35" vertex="1"><mxGeometry width="44" height="30" as="geometry"/></mxCell><mxCell id="37" value="name" style="shape=partialRectangle;html=1;whiteSpace=wrap;connectable=0;fillColor=none;top=0;left=0;bottom=0;right=0;align=left;spacingLeft=6;overflow=hidden;" parent="35" vertex="1"><mxGeometry x="44" width="156" height="30" as="geometry"/></mxCell><mxCell id="38" value="" style="shape=partialRectangle;html=1;whiteSpace=wrap;collapsible=0;dropTarget=0;pointerEvents=0;fillColor=none;top=0;left=0;bottom=0;right=0;points=[[0,0.5],[1,0.5]];portConstraint=eastwest;" parent="28" vertex="1"><mxGeometry y="120" width="200" height="30" as="geometry"/></mxCell><mxCell id="39" value="4" style="shape=partialRectangle;html=1;whiteSpace=wrap;connectable=0;fillColor=none;top=0;left=0;bottom=0;right=0;overflow=hidden;" parent="38" vertex="1"><mxGeometry width="44" height="30" as="geometry"/></mxCell><mxCell id="40" value="address" style="shape=partialRectangle;html=1;whiteSpace=wrap;connectable=0;fillColor=none;top=0;left=0;bottom=0;right=0;align=left;spacingLeft=6;overflow=hidden;" parent="38" vertex="1"><mxGeometry x="44" width="156" height="30" as="geometry"/></mxCell><mxCell id="41" value="" style="shape=partialRectangle;html=1;whiteSpace=wrap;collapsible=0;dropTarget=0;pointerEvents=0;fillColor=none;top=0;left=0;bottom=1;right=0;points=[[0,0.5],[1,0.5]];portConstraint=eastwest;" parent="28" vertex="1"><mxGeometry y="150" width="200" height="30" as="geometry"/></mxCell><mxCell id="42" value="5" style="shape=partialRectangle;html=1;whiteSpace=wrap;connectable=0;fillColor=none;top=0;left=0;bottom=0;right=0;overflow=hidden;" parent="41" vertex="1"><mxGeometry width="44" height="30" as="geometry"/></mxCell><mxCell id="43" value="phone" style="shape=partialRectangle;html=1;whiteSpace=wrap;connectable=0;fillColor=none;top=0;left=0;bottom=0;right=0;align=left;spacingLeft=6;overflow=hidden;" parent="41" vertex="1"><mxGeometry x="44" width="156" height="30" as="geometry"/></mxCell><mxCell id="44" value="" style="shape=partialRectangle;html=1;whiteSpace=wrap;collapsible=0;dropTarget=0;pointerEvents=0;fillColor=none;top=0;left=0;bottom=0;right=0;points=[[0,0.5],[1,0.5]];portConstraint=eastwest;" parent="28" vertex="1"><mxGeometry y="180" width="200" height="30" as="geometry"/></mxCell><mxCell id="45" value="6" style="shape=partialRectangle;html=1;whiteSpace=wrap;connectable=0;fillColor=none;top=0;left=0;bottom=0;right=0;overflow=hidden;" parent="44" vertex="1"><mxGeometry width="44" height="30" as="geometry"/></mxCell><mxCell id="46" value="is_active" style="shape=partialRectangle;html=1;whiteSpace=wrap;connectable=0;fillColor=none;top=0;left=0;bottom=0;right=0;align=left;spacingLeft=6;overflow=hidden;" parent="44" vertex="1"><mxGeometry x="44" width="156" height="30" as="geometry"/></mxCell><object label="" placeholders="1" id="54"><mxCell style="edgeStyle=entityRelationEdgeStyle;fontSize=12;html=1;endArrow=ERoneToMany;exitX=1.02;exitY=-0.033;exitDx=0;exitDy=0;exitPerimeter=0;" parent="1" source="19" edge="1"><mxGeometry width="100" height="100" relative="1" as="geometry"><mxPoint x="200" y="240" as="sourcePoint"/><mxPoint x="356" y="90" as="targetPoint"/></mxGeometry></mxCell></object><mxCell id="56" value="user" style="shape=table;html=1;whiteSpace=wrap;startSize=30;container=1;collapsible=0;childLayout=tableLayout;fixedRows=1;rowLines=0;fontStyle=1;align=center;" parent="1" vertex="1"><mxGeometry x="680" y="40" width="200" height="330" as="geometry"/></mxCell><mxCell id="57" value="" style="shape=partialRectangle;html=1;whiteSpace=wrap;collapsible=0;dropTarget=0;pointerEvents=0;fillColor=none;top=0;left=0;bottom=1;right=0;points=[[0,0.5],[1,0.5]];portConstraint=eastwest;" parent="56" vertex="1"><mxGeometry y="30" width="200" height="30" as="geometry"/></mxCell><mxCell id="58" value="1" style="shape=partialRectangle;html=1;whiteSpace=wrap;connectable=0;fillColor=none;top=0;left=0;bottom=0;right=0;overflow=hidden;" parent="57" vertex="1"><mxGeometry width="44" height="30" as="geometry"/></mxCell><mxCell id="59" value="id" style="shape=partialRectangle;html=1;whiteSpace=wrap;connectable=0;fillColor=none;top=0;left=0;bottom=0;right=0;align=left;spacingLeft=6;overflow=hidden;" parent="57" vertex="1"><mxGeometry x="44" width="156" height="30" as="geometry"/></mxCell><mxCell id="60" value="" style="shape=partialRectangle;html=1;whiteSpace=wrap;collapsible=0;dropTarget=0;pointerEvents=0;fillColor=none;top=0;left=0;bottom=0;right=0;points=[[0,0.5],[1,0.5]];portConstraint=eastwest;" parent="56" vertex="1"><mxGeometry y="60" width="200" height="30" as="geometry"/></mxCell><mxCell id="61" value="2" style="shape=partialRectangle;html=1;whiteSpace=wrap;connectable=0;fillColor=none;top=0;left=0;bottom=0;right=0;overflow=hidden;" parent="60" vertex="1"><mxGeometry width="44" height="30" as="geometry"/></mxCell><mxCell id="62" value="office_id" style="shape=partialRectangle;html=1;whiteSpace=wrap;connectable=0;fillColor=none;top=0;left=0;bottom=0;right=0;align=left;spacingLeft=6;overflow=hidden;" parent="60" vertex="1"><mxGeometry x="44" width="156" height="30" as="geometry"/></mxCell><mxCell id="63" value="" style="shape=partialRectangle;html=1;whiteSpace=wrap;collapsible=0;dropTarget=0;pointerEvents=0;fillColor=none;top=0;left=0;bottom=0;right=0;points=[[0,0.5],[1,0.5]];portConstraint=eastwest;" parent="56" vertex="1"><mxGeometry y="90" width="200" height="30" as="geometry"/></mxCell><mxCell id="64" value="3" style="shape=partialRectangle;html=1;whiteSpace=wrap;connectable=0;fillColor=none;top=0;left=0;bottom=0;right=0;overflow=hidden;" parent="63" vertex="1"><mxGeometry width="44" height="30" as="geometry"/></mxCell><mxCell id="65" value="first_name" style="shape=partialRectangle;html=1;whiteSpace=wrap;connectable=0;fillColor=none;top=0;left=0;bottom=0;right=0;align=left;spacingLeft=6;overflow=hidden;" parent="63" vertex="1"><mxGeometry x="44" width="156" height="30" as="geometry"/></mxCell><mxCell id="66" value="" style="shape=partialRectangle;html=1;whiteSpace=wrap;collapsible=0;dropTarget=0;pointerEvents=0;fillColor=none;top=0;left=0;bottom=0;right=0;points=[[0,0.5],[1,0.5]];portConstraint=eastwest;" parent="56" vertex="1"><mxGeometry y="120" width="200" height="30" as="geometry"/></mxCell><mxCell id="67" value="4" style="shape=partialRectangle;html=1;whiteSpace=wrap;connectable=0;fillColor=none;top=0;left=0;bottom=0;right=0;overflow=hidden;" parent="66" vertex="1"><mxGeometry width="44" height="30" as="geometry"/></mxCell><mxCell id="68" value="second_name" style="shape=partialRectangle;html=1;whiteSpace=wrap;connectable=0;fillColor=none;top=0;left=0;bottom=0;right=0;align=left;spacingLeft=6;overflow=hidden;" parent="66" vertex="1"><mxGeometry x="44" width="156" height="30" as="geometry"/></mxCell><mxCell id="69" value="" style="shape=partialRectangle;html=1;whiteSpace=wrap;collapsible=0;dropTarget=0;pointerEvents=0;fillColor=none;top=0;left=0;bottom=1;right=0;points=[[0,0.5],[1,0.5]];portConstraint=eastwest;" parent="56" vertex="1"><mxGeometry y="150" width="200" height="30" as="geometry"/></mxCell><mxCell id="70" value="5" style="shape=partialRectangle;html=1;whiteSpace=wrap;connectable=0;fillColor=none;top=0;left=0;bottom=0;right=0;overflow=hidden;" parent="69" vertex="1"><mxGeometry width="44" height="30" as="geometry"/></mxCell><mxCell id="71" value="middle_name" style="shape=partialRectangle;html=1;whiteSpace=wrap;connectable=0;fillColor=none;top=0;left=0;bottom=0;right=0;align=left;spacingLeft=6;overflow=hidden;" parent="69" vertex="1"><mxGeometry x="44" width="156" height="30" as="geometry"/></mxCell><mxCell id="72" value="" style="shape=partialRectangle;html=1;whiteSpace=wrap;collapsible=0;dropTarget=0;pointerEvents=0;fillColor=none;top=0;left=0;bottom=0;right=0;points=[[0,0.5],[1,0.5]];portConstraint=eastwest;" parent="56" vertex="1"><mxGeometry y="180" width="200" height="30" as="geometry"/></mxCell><mxCell id="73" value="6" style="shape=partialRectangle;html=1;whiteSpace=wrap;connectable=0;fillColor=none;top=0;left=0;bottom=0;right=0;overflow=hidden;" parent="72" vertex="1"><mxGeometry width="44" height="30" as="geometry"/></mxCell><mxCell id="74" value="position" style="shape=partialRectangle;html=1;whiteSpace=wrap;connectable=0;fillColor=none;top=0;left=0;bottom=0;right=0;align=left;spacingLeft=6;overflow=hidden;" parent="72" vertex="1"><mxGeometry x="44" width="156" height="30" as="geometry"/></mxCell><mxCell id="75" value="" style="shape=partialRectangle;html=1;whiteSpace=wrap;collapsible=0;dropTarget=0;pointerEvents=0;fillColor=none;top=0;left=0;bottom=0;right=0;points=[[0,0.5],[1,0.5]];portConstraint=eastwest;" parent="56" vertex="1"><mxGeometry y="210" width="200" height="30" as="geometry"/></mxCell><mxCell id="76" value="7" style="shape=partialRectangle;html=1;whiteSpace=wrap;connectable=0;fillColor=none;top=0;left=0;bottom=0;right=0;overflow=hidden;" parent="75" vertex="1"><mxGeometry width="44" height="30" as="geometry"/></mxCell><mxCell id="77" value="phone" style="shape=partialRectangle;html=1;whiteSpace=wrap;connectable=0;fillColor=none;top=0;left=0;bottom=0;right=0;align=left;spacingLeft=6;overflow=hidden;" parent="75" vertex="1"><mxGeometry x="44" width="156" height="30" as="geometry"/></mxCell><mxCell id="78" value="" style="shape=partialRectangle;html=1;whiteSpace=wrap;collapsible=0;dropTarget=0;pointerEvents=0;fillColor=none;top=0;left=0;bottom=0;right=0;points=[[0,0.5],[1,0.5]];portConstraint=eastwest;" parent="56" vertex="1"><mxGeometry y="240" width="200" height="30" as="geometry"/></mxCell><mxCell id="79" value="8" style="shape=partialRectangle;html=1;whiteSpace=wrap;connectable=0;fillColor=none;top=0;left=0;bottom=0;right=0;overflow=hidden;" parent="78" vertex="1"><mxGeometry width="44" height="30" as="geometry"/></mxCell><mxCell id="80" value="users_document_id" style="shape=partialRectangle;html=1;whiteSpace=wrap;connectable=0;fillColor=none;top=0;left=0;bottom=0;right=0;align=left;spacingLeft=6;overflow=hidden;" parent="78" vertex="1"><mxGeometry x="44" width="156" height="30" as="geometry"/></mxCell><mxCell id="104" value="" style="shape=partialRectangle;html=1;whiteSpace=wrap;collapsible=0;dropTarget=0;pointerEvents=0;fillColor=none;top=0;left=0;bottom=0;right=0;points=[[0,0.5],[1,0.5]];portConstraint=eastwest;" parent="56" vertex="1"><mxGeometry y="270" width="200" height="30" as="geometry"/></mxCell><mxCell id="105" value="9" style="shape=partialRectangle;html=1;whiteSpace=wrap;connectable=0;fillColor=none;top=0;left=0;bottom=0;right=0;overflow=hidden;" parent="104" vertex="1"><mxGeometry width="44" height="30" as="geometry"/></mxCell><mxCell id="106" value="country_id" style="shape=partialRectangle;html=1;whiteSpace=wrap;connectable=0;fillColor=none;top=0;left=0;bottom=0;right=0;align=left;spacingLeft=6;overflow=hidden;" parent="104" vertex="1"><mxGeometry x="44" width="156" height="30" as="geometry"/></mxCell><mxCell id="107" value="" style="shape=partialRectangle;html=1;whiteSpace=wrap;collapsible=0;dropTarget=0;pointerEvents=0;fillColor=none;top=0;left=0;bottom=1;right=0;points=[[0,0.5],[1,0.5]];portConstraint=eastwest;" parent="56" vertex="1"><mxGeometry y="300" width="200" height="30" as="geometry"/></mxCell><mxCell id="108" value="10" style="shape=partialRectangle;html=1;whiteSpace=wrap;connectable=0;fillColor=none;top=0;left=0;bottom=0;right=0;overflow=hidden;" parent="107" vertex="1"><mxGeometry width="44" height="30" as="geometry"/></mxCell><mxCell id="109" value="is_identifieed" style="shape=partialRectangle;html=1;whiteSpace=wrap;connectable=0;fillColor=none;top=0;left=0;bottom=0;right=0;align=left;spacingLeft=6;overflow=hidden;" parent="107" vertex="1"><mxGeometry x="44" width="156" height="30" as="geometry"/></mxCell><mxCell id="119" value="" style="edgeStyle=entityRelationEdgeStyle;fontSize=12;html=1;endArrow=ERoneToMany;entryX=0;entryY=0.5;entryDx=0;entryDy=0;exitX=1;exitY=0.5;exitDx=0;exitDy=0;" parent="1" source="41" target="57" edge="1"><mxGeometry width="100" height="100" relative="1" as="geometry"><mxPoint x="560" y="150" as="sourcePoint"/><mxPoint x="660" y="50" as="targetPoint"/></mxGeometry></mxCell><mxCell id="121" value="country" style="shape=table;html=1;whiteSpace=wrap;startSize=30;container=1;collapsible=0;childLayout=tableLayout;fixedRows=1;rowLines=0;fontStyle=1;align=center;" parent="1" vertex="1"><mxGeometry x="40" y="400" width="200" height="120" as="geometry"/></mxCell><mxCell id="122" value="" style="shape=partialRectangle;html=1;whiteSpace=wrap;collapsible=0;dropTarget=0;pointerEvents=0;fillColor=none;top=0;left=0;bottom=1;right=0;points=[[0,0.5],[1,0.5]];portConstraint=eastwest;" parent="121" vertex="1"><mxGeometry y="30" width="200" height="30" as="geometry"/></mxCell><mxCell id="123" value="1" style="shape=partialRectangle;html=1;whiteSpace=wrap;connectable=0;fillColor=none;top=0;left=0;bottom=0;right=0;overflow=hidden;" parent="122" vertex="1"><mxGeometry width="44" height="30" as="geometry"/></mxCell><mxCell id="124" value="id" style="shape=partialRectangle;html=1;whiteSpace=wrap;connectable=0;fillColor=none;top=0;left=0;bottom=0;right=0;align=left;spacingLeft=6;overflow=hidden;" parent="122" vertex="1"><mxGeometry x="44" width="156" height="30" as="geometry"/></mxCell><mxCell id="125" value="" style="shape=partialRectangle;html=1;whiteSpace=wrap;collapsible=0;dropTarget=0;pointerEvents=0;fillColor=none;top=0;left=0;bottom=0;right=0;points=[[0,0.5],[1,0.5]];portConstraint=eastwest;" parent="121" vertex="1"><mxGeometry y="60" width="200" height="30" as="geometry"/></mxCell><mxCell id="126" value="2" style="shape=partialRectangle;html=1;whiteSpace=wrap;connectable=0;fillColor=none;top=0;left=0;bottom=0;right=0;overflow=hidden;" parent="125" vertex="1"><mxGeometry width="44" height="30" as="geometry"/></mxCell><mxCell id="127" value="name" style="shape=partialRectangle;html=1;whiteSpace=wrap;connectable=0;fillColor=none;top=0;left=0;bottom=0;right=0;align=left;spacingLeft=6;overflow=hidden;" parent="125" vertex="1"><mxGeometry x="44" width="156" height="30" as="geometry"/></mxCell><mxCell id="128" value="" style="shape=partialRectangle;html=1;whiteSpace=wrap;collapsible=0;dropTarget=0;pointerEvents=0;fillColor=none;top=0;left=0;bottom=0;right=0;points=[[0,0.5],[1,0.5]];portConstraint=eastwest;" parent="121" vertex="1"><mxGeometry y="90" width="200" height="30" as="geometry"/></mxCell><mxCell id="129" value="3" style="shape=partialRectangle;html=1;whiteSpace=wrap;connectable=0;fillColor=none;top=0;left=0;bottom=0;right=0;overflow=hidden;" parent="128" vertex="1"><mxGeometry width="44" height="30" as="geometry"/></mxCell><mxCell id="130" value="code" style="shape=partialRectangle;html=1;whiteSpace=wrap;connectable=0;fillColor=none;top=0;left=0;bottom=0;right=0;align=left;spacingLeft=6;overflow=hidden;" parent="128" vertex="1"><mxGeometry x="44" width="156" height="30" as="geometry"/></mxCell><mxCell id="140" value="document" style="shape=table;html=1;whiteSpace=wrap;startSize=30;container=1;collapsible=0;childLayout=tableLayout;fixedRows=1;rowLines=0;fontStyle=1;align=center;" parent="1" vertex="1"><mxGeometry x="40" y="600" width="200" height="120" as="geometry"/></mxCell><mxCell id="141" value="" style="shape=partialRectangle;html=1;whiteSpace=wrap;collapsible=0;dropTarget=0;pointerEvents=0;fillColor=none;top=0;left=0;bottom=1;right=0;points=[[0,0.5],[1,0.5]];portConstraint=eastwest;" parent="140" vertex="1"><mxGeometry y="30" width="200" height="30" as="geometry"/></mxCell><mxCell id="142" value="1" style="shape=partialRectangle;html=1;whiteSpace=wrap;connectable=0;fillColor=none;top=0;left=0;bottom=0;right=0;overflow=hidden;" parent="141" vertex="1"><mxGeometry width="44" height="30" as="geometry"/></mxCell><mxCell id="143" value="id" style="shape=partialRectangle;html=1;whiteSpace=wrap;connectable=0;fillColor=none;top=0;left=0;bottom=0;right=0;align=left;spacingLeft=6;overflow=hidden;" parent="141" vertex="1"><mxGeometry x="44" width="156" height="30" as="geometry"/></mxCell><mxCell id="144" value="" style="shape=partialRectangle;html=1;whiteSpace=wrap;collapsible=0;dropTarget=0;pointerEvents=0;fillColor=none;top=0;left=0;bottom=0;right=0;points=[[0,0.5],[1,0.5]];portConstraint=eastwest;" parent="140" vertex="1"><mxGeometry y="60" width="200" height="30" as="geometry"/></mxCell><mxCell id="145" value="2" style="shape=partialRectangle;html=1;whiteSpace=wrap;connectable=0;fillColor=none;top=0;left=0;bottom=0;right=0;overflow=hidden;" parent="144" vertex="1"><mxGeometry width="44" height="30" as="geometry"/></mxCell><mxCell id="146" value="name" style="shape=partialRectangle;html=1;whiteSpace=wrap;connectable=0;fillColor=none;top=0;left=0;bottom=0;right=0;align=left;spacingLeft=6;overflow=hidden;" parent="144" vertex="1"><mxGeometry x="44" width="156" height="30" as="geometry"/></mxCell><mxCell id="147" value="" style="shape=partialRectangle;html=1;whiteSpace=wrap;collapsible=0;dropTarget=0;pointerEvents=0;fillColor=none;top=0;left=0;bottom=0;right=0;points=[[0,0.5],[1,0.5]];portConstraint=eastwest;" parent="140" vertex="1"><mxGeometry y="90" width="200" height="30" as="geometry"/></mxCell><mxCell id="148" value="3" style="shape=partialRectangle;html=1;whiteSpace=wrap;connectable=0;fillColor=none;top=0;left=0;bottom=0;right=0;overflow=hidden;" parent="147" vertex="1"><mxGeometry width="44" height="30" as="geometry"/></mxCell><mxCell id="149" value="code" style="shape=partialRectangle;html=1;whiteSpace=wrap;connectable=0;fillColor=none;top=0;left=0;bottom=0;right=0;align=left;spacingLeft=6;overflow=hidden;" parent="147" vertex="1"><mxGeometry x="44" width="156" height="30" as="geometry"/></mxCell><mxCell id="169" value="" style="edgeStyle=entityRelationEdgeStyle;fontSize=12;html=1;endArrow=ERmandOne;startArrow=ERmandOne;entryX=0;entryY=0.5;entryDx=0;entryDy=0;exitX=1;exitY=0.5;exitDx=0;exitDy=0;" parent="1" source="122" target="104" edge="1"><mxGeometry width="100" height="100" relative="1" as="geometry"><mxPoint x="440" y="410" as="sourcePoint"/><mxPoint x="540" y="310" as="targetPoint"/></mxGeometry></mxCell><mxCell id="170" value="" style="edgeStyle=entityRelationEdgeStyle;fontSize=12;html=1;endArrow=ERmandOne;startArrow=ERmandOne;exitX=1;exitY=0.5;exitDx=0;exitDy=0;entryX=-0.015;entryY=0.111;entryDx=0;entryDy=0;entryPerimeter=0;" parent="1" source="144" target="Y8EamnQB0Gp6YWN0wgX4-171" edge="1"><mxGeometry width="100" height="100" relative="1" as="geometry"><mxPoint x="560" y="630" as="sourcePoint"/><mxPoint x="356" y="455.9000000000001" as="targetPoint"/></mxGeometry></mxCell><mxCell id="171" value="" style="edgeStyle=entityRelationEdgeStyle;fontSize=12;html=1;endArrow=ERmandOne;startArrow=ERmandOne;entryX=0;entryY=0;entryDx=0;entryDy=0;entryPerimeter=0;exitX=1;exitY=0.5;exitDx=0;exitDy=0;" parent="1" source="Y8EamnQB0Gp6YWN0wgX4-175" target="107" edge="1"><mxGeometry width="100" height="100" relative="1" as="geometry"><mxPoint x="560" y="515" as="sourcePoint"/><mxPoint x="660" y="540" as="targetPoint"/></mxGeometry></mxCell><mxCell id="Y8EamnQB0Gp6YWN0wgX4-171" value="users_document" style="shape=table;html=1;whiteSpace=wrap;startSize=30;container=1;collapsible=0;childLayout=tableLayout;fixedRows=1;rowLines=0;fontStyle=1;align=center;" parent="1" vertex="1"><mxGeometry x="360" y="440" width="200" height="180" as="geometry"/></mxCell><mxCell id="Y8EamnQB0Gp6YWN0wgX4-172" value="" style="shape=partialRectangle;html=1;whiteSpace=wrap;collapsible=0;dropTarget=0;pointerEvents=0;fillColor=none;top=0;left=0;bottom=0;right=0;points=[[0,0.5],[1,0.5]];portConstraint=eastwest;" parent="Y8EamnQB0Gp6YWN0wgX4-171" vertex="1"><mxGeometry y="30" width="200" height="30" as="geometry"/></mxCell><mxCell id="Y8EamnQB0Gp6YWN0wgX4-173" value="1" style="shape=partialRectangle;html=1;whiteSpace=wrap;connectable=0;fillColor=none;top=0;left=0;bottom=0;right=0;overflow=hidden;" parent="Y8EamnQB0Gp6YWN0wgX4-172" vertex="1"><mxGeometry width="44" height="30" as="geometry"/></mxCell><mxCell id="Y8EamnQB0Gp6YWN0wgX4-174" value="id" style="shape=partialRectangle;html=1;whiteSpace=wrap;connectable=0;fillColor=none;top=0;left=0;bottom=0;right=0;align=left;spacingLeft=6;overflow=hidden;" parent="Y8EamnQB0Gp6YWN0wgX4-172" vertex="1"><mxGeometry x="44" width="156" height="30" as="geometry"/></mxCell><mxCell id="Y8EamnQB0Gp6YWN0wgX4-175" value="" style="shape=partialRectangle;html=1;whiteSpace=wrap;collapsible=0;dropTarget=0;pointerEvents=0;fillColor=none;top=0;left=0;bottom=0;right=0;points=[[0,0.5],[1,0.5]];portConstraint=eastwest;" parent="Y8EamnQB0Gp6YWN0wgX4-171" vertex="1"><mxGeometry y="60" width="200" height="30" as="geometry"/></mxCell><mxCell id="Y8EamnQB0Gp6YWN0wgX4-176" value="1" style="shape=partialRectangle;html=1;whiteSpace=wrap;connectable=0;fillColor=none;top=0;left=0;bottom=0;right=0;overflow=hidden;" parent="Y8EamnQB0Gp6YWN0wgX4-175" vertex="1"><mxGeometry width="44" height="30" as="geometry"/></mxCell><mxCell id="Y8EamnQB0Gp6YWN0wgX4-177" value="user_id" style="shape=partialRectangle;html=1;whiteSpace=wrap;connectable=0;fillColor=none;top=0;left=0;bottom=0;right=0;align=left;spacingLeft=6;overflow=hidden;" parent="Y8EamnQB0Gp6YWN0wgX4-175" vertex="1"><mxGeometry x="44" width="156" height="30" as="geometry"/></mxCell><mxCell id="Y8EamnQB0Gp6YWN0wgX4-178" value="" style="shape=partialRectangle;html=1;whiteSpace=wrap;collapsible=0;dropTarget=0;pointerEvents=0;fillColor=none;top=0;left=0;bottom=0;right=0;points=[[0,0.5],[1,0.5]];portConstraint=eastwest;" parent="Y8EamnQB0Gp6YWN0wgX4-171" vertex="1"><mxGeometry y="90" width="200" height="30" as="geometry"/></mxCell><mxCell id="Y8EamnQB0Gp6YWN0wgX4-179" value="2" style="shape=partialRectangle;html=1;whiteSpace=wrap;connectable=0;fillColor=none;top=0;left=0;bottom=0;right=0;overflow=hidden;" parent="Y8EamnQB0Gp6YWN0wgX4-178" vertex="1"><mxGeometry width="44" height="30" as="geometry"/></mxCell><mxCell id="Y8EamnQB0Gp6YWN0wgX4-180" value="document_id" style="shape=partialRectangle;html=1;whiteSpace=wrap;connectable=0;fillColor=none;top=0;left=0;bottom=0;right=0;align=left;spacingLeft=6;overflow=hidden;" parent="Y8EamnQB0Gp6YWN0wgX4-178" vertex="1"><mxGeometry x="44" width="156" height="30" as="geometry"/></mxCell><mxCell id="Y8EamnQB0Gp6YWN0wgX4-181" value="" style="shape=partialRectangle;html=1;whiteSpace=wrap;collapsible=0;dropTarget=0;pointerEvents=0;fillColor=none;top=0;left=0;bottom=0;right=0;points=[[0,0.5],[1,0.5]];portConstraint=eastwest;" parent="Y8EamnQB0Gp6YWN0wgX4-171" vertex="1"><mxGeometry y="120" width="200" height="30" as="geometry"/></mxCell><mxCell id="Y8EamnQB0Gp6YWN0wgX4-182" value="3" style="shape=partialRectangle;html=1;whiteSpace=wrap;connectable=0;fillColor=none;top=0;left=0;bottom=0;right=0;overflow=hidden;" parent="Y8EamnQB0Gp6YWN0wgX4-181" vertex="1"><mxGeometry width="44" height="30" as="geometry"/></mxCell><mxCell id="Y8EamnQB0Gp6YWN0wgX4-183" value="serial_number" style="shape=partialRectangle;html=1;whiteSpace=wrap;connectable=0;fillColor=none;top=0;left=0;bottom=0;right=0;align=left;spacingLeft=6;overflow=hidden;" parent="Y8EamnQB0Gp6YWN0wgX4-181" vertex="1"><mxGeometry x="44" width="156" height="30" as="geometry"/></mxCell><mxCell id="Y8EamnQB0Gp6YWN0wgX4-184" value="" style="shape=partialRectangle;html=1;whiteSpace=wrap;collapsible=0;dropTarget=0;pointerEvents=0;fillColor=none;top=0;left=0;bottom=1;right=0;points=[[0,0.5],[1,0.5]];portConstraint=eastwest;" parent="Y8EamnQB0Gp6YWN0wgX4-171" vertex="1"><mxGeometry y="150" width="200" height="30" as="geometry"/></mxCell><mxCell id="Y8EamnQB0Gp6YWN0wgX4-185" value="4" style="shape=partialRectangle;html=1;whiteSpace=wrap;connectable=0;fillColor=none;top=0;left=0;bottom=0;right=0;overflow=hidden;" parent="Y8EamnQB0Gp6YWN0wgX4-184" vertex="1"><mxGeometry width="44" height="30" as="geometry"/></mxCell><mxCell id="Y8EamnQB0Gp6YWN0wgX4-186" value="date_of_issue" style="shape=partialRectangle;html=1;whiteSpace=wrap;connectable=0;fillColor=none;top=0;left=0;bottom=0;right=0;align=left;spacingLeft=6;overflow=hidden;" parent="Y8EamnQB0Gp6YWN0wgX4-184" vertex="1"><mxGeometry x="44" width="156" height="30" as="geometry"/></mxCell></root></mxGraphModel></diagram><diagram name="schema" id="jte1Cn-YYh9q_fw99gH-"><mxGraphModel dx="1831" dy="743" grid="1" gridSize="10" guides="1" tooltips="1" connect="1" arrows="1" fold="1" page="1" pageScale="1" pageWidth="1200" pageHeight="1920" math="0" shadow="0"><root><mxCell id="Pr4hYXEXDhpqh9zaVqZ0-0"/><mxCell id="Pr4hYXEXDhpqh9zaVqZ0-1" parent="Pr4hYXEXDhpqh9zaVqZ0-0"/><mxCell id="Pr4hYXEXDhpqh9zaVqZ0-2" value="organization" style="shape=table;html=1;whiteSpace=wrap;startSize=30;container=1;collapsible=0;childLayout=tableLayout;fixedRows=1;rowLines=0;fontStyle=1;align=center;" parent="Pr4hYXEXDhpqh9zaVqZ0-1" vertex="1"><mxGeometry x="40" y="40" width="240" height="270" as="geometry"/></mxCell><mxCell id="Pr4hYXEXDhpqh9zaVqZ0-3" value="" style="shape=partialRectangle;html=1;whiteSpace=wrap;collapsible=0;dropTarget=0;pointerEvents=0;fillColor=none;top=0;left=0;bottom=1;right=0;points=[[0,0.5],[1,0.5]];portConstraint=eastwest;" parent="Pr4hYXEXDhpqh9zaVqZ0-2" vertex="1"><mxGeometry y="30" width="240" height="30" as="geometry"/></mxCell><mxCell id="Pr4hYXEXDhpqh9zaVqZ0-4" value="1" style="shape=partialRectangle;html=1;whiteSpace=wrap;connectable=0;fillColor=none;top=0;left=0;bottom=0;right=0;overflow=hidden;" parent="Pr4hYXEXDhpqh9zaVqZ0-3" vertex="1"><mxGeometry width="40" height="30" as="geometry"/></mxCell><mxCell id="Pr4hYXEXDhpqh9zaVqZ0-5" value="id&amp;nbsp; &amp;nbsp; bigint auto_increment PK" style="shape=partialRectangle;html=1;whiteSpace=wrap;connectable=0;fillColor=none;top=0;left=0;bottom=0;right=0;align=left;spacingLeft=6;overflow=hidden;" parent="Pr4hYXEXDhpqh9zaVqZ0-3" vertex="1"><mxGeometry x="40" width="200" height="30" as="geometry"/></mxCell><mxCell id="Pr4hYXEXDhpqh9zaVqZ0-6" value="" style="shape=partialRectangle;html=1;whiteSpace=wrap;collapsible=0;dropTarget=0;pointerEvents=0;fillColor=none;top=0;left=0;bottom=0;right=0;points=[[0,0.5],[1,0.5]];portConstraint=eastwest;" parent="Pr4hYXEXDhpqh9zaVqZ0-2" vertex="1"><mxGeometry y="60" width="240" height="30" as="geometry"/></mxCell><mxCell id="Pr4hYXEXDhpqh9zaVqZ0-7" value="2" style="shape=partialRectangle;html=1;whiteSpace=wrap;connectable=0;fillColor=none;top=0;left=0;bottom=0;right=0;overflow=hidden;" parent="Pr4hYXEXDhpqh9zaVqZ0-6" vertex="1"><mxGeometry width="40" height="30" as="geometry"/></mxCell><mxCell id="Pr4hYXEXDhpqh9zaVqZ0-8" value="name&amp;nbsp; &amp;nbsp; nvarchar(45) not null" style="shape=partialRectangle;html=1;whiteSpace=wrap;connectable=0;fillColor=none;top=0;left=0;bottom=0;right=0;align=left;spacingLeft=6;overflow=hidden;" parent="Pr4hYXEXDhpqh9zaVqZ0-6" vertex="1"><mxGeometry x="40" width="200" height="30" as="geometry"/></mxCell><mxCell id="Pr4hYXEXDhpqh9zaVqZ0-9" value="" style="shape=partialRectangle;html=1;whiteSpace=wrap;collapsible=0;dropTarget=0;pointerEvents=0;fillColor=none;top=0;left=0;bottom=0;right=0;points=[[0,0.5],[1,0.5]];portConstraint=eastwest;" parent="Pr4hYXEXDhpqh9zaVqZ0-2" vertex="1"><mxGeometry y="90" width="240" height="30" as="geometry"/></mxCell><mxCell id="Pr4hYXEXDhpqh9zaVqZ0-10" value="3" style="shape=partialRectangle;html=1;whiteSpace=wrap;connectable=0;fillColor=none;top=0;left=0;bottom=0;right=0;overflow=hidden;" parent="Pr4hYXEXDhpqh9zaVqZ0-9" vertex="1"><mxGeometry width="40" height="30" as="geometry"/></mxCell><mxCell id="Pr4hYXEXDhpqh9zaVqZ0-11" value="full_name&amp;nbsp; &amp;nbsp; nvarchar(45) not null" style="shape=partialRectangle;html=1;whiteSpace=wrap;connectable=0;fillColor=none;top=0;left=0;bottom=0;right=0;align=left;spacingLeft=6;overflow=hidden;" parent="Pr4hYXEXDhpqh9zaVqZ0-9" vertex="1"><mxGeometry x="40" width="200" height="30" as="geometry"/></mxCell><mxCell id="Pr4hYXEXDhpqh9zaVqZ0-12" value="" style="shape=partialRectangle;html=1;whiteSpace=wrap;collapsible=0;dropTarget=0;pointerEvents=0;fillColor=none;top=0;left=0;bottom=0;right=0;points=[[0,0.5],[1,0.5]];portConstraint=eastwest;" parent="Pr4hYXEXDhpqh9zaVqZ0-2" vertex="1"><mxGeometry y="120" width="240" height="30" as="geometry"/></mxCell><mxCell id="Pr4hYXEXDhpqh9zaVqZ0-13" value="4" style="shape=partialRectangle;html=1;whiteSpace=wrap;connectable=0;fillColor=none;top=0;left=0;bottom=0;right=0;overflow=hidden;" parent="Pr4hYXEXDhpqh9zaVqZ0-12" vertex="1"><mxGeometry width="40" height="30" as="geometry"/></mxCell><mxCell id="Pr4hYXEXDhpqh9zaVqZ0-14" value="inn&amp;nbsp; &amp;nbsp; varchar(12) not null" style="shape=partialRectangle;html=1;whiteSpace=wrap;connectable=0;fillColor=none;top=0;left=0;bottom=0;right=0;align=left;spacingLeft=6;overflow=hidden;" parent="Pr4hYXEXDhpqh9zaVqZ0-12" vertex="1"><mxGeometry x="40" width="200" height="30" as="geometry"/></mxCell><mxCell id="Pr4hYXEXDhpqh9zaVqZ0-15" value="" style="shape=partialRectangle;html=1;whiteSpace=wrap;collapsible=0;dropTarget=0;pointerEvents=0;fillColor=none;top=0;left=0;bottom=1;right=0;points=[[0,0.5],[1,0.5]];portConstraint=eastwest;" parent="Pr4hYXEXDhpqh9zaVqZ0-2" vertex="1"><mxGeometry y="150" width="240" height="30" as="geometry"/></mxCell><mxCell id="Pr4hYXEXDhpqh9zaVqZ0-16" value="5" style="shape=partialRectangle;html=1;whiteSpace=wrap;connectable=0;fillColor=none;top=0;left=0;bottom=0;right=0;overflow=hidden;" parent="Pr4hYXEXDhpqh9zaVqZ0-15" vertex="1"><mxGeometry width="40" height="30" as="geometry"/></mxCell><mxCell id="Pr4hYXEXDhpqh9zaVqZ0-17" value="kpp&amp;nbsp; &amp;nbsp; varchar(9) not null" style="shape=partialRectangle;html=1;whiteSpace=wrap;connectable=0;fillColor=none;top=0;left=0;bottom=0;right=0;align=left;spacingLeft=6;overflow=hidden;" parent="Pr4hYXEXDhpqh9zaVqZ0-15" vertex="1"><mxGeometry x="40" width="200" height="30" as="geometry"/></mxCell><mxCell id="Pr4hYXEXDhpqh9zaVqZ0-18" value="" style="shape=partialRectangle;html=1;whiteSpace=wrap;collapsible=0;dropTarget=0;pointerEvents=0;fillColor=none;top=0;left=0;bottom=0;right=0;points=[[0,0.5],[1,0.5]];portConstraint=eastwest;" parent="Pr4hYXEXDhpqh9zaVqZ0-2" vertex="1"><mxGeometry y="180" width="240" height="30" as="geometry"/></mxCell><mxCell id="Pr4hYXEXDhpqh9zaVqZ0-19" value="6" style="shape=partialRectangle;html=1;whiteSpace=wrap;connectable=0;fillColor=none;top=0;left=0;bottom=0;right=0;overflow=hidden;" parent="Pr4hYXEXDhpqh9zaVqZ0-18" vertex="1"><mxGeometry width="40" height="30" as="geometry"/></mxCell><mxCell id="Pr4hYXEXDhpqh9zaVqZ0-20" value="address&amp;nbsp; &amp;nbsp; nvarchar(255) not null" style="shape=partialRectangle;html=1;whiteSpace=wrap;connectable=0;fillColor=none;top=0;left=0;bottom=0;right=0;align=left;spacingLeft=6;overflow=hidden;" parent="Pr4hYXEXDhpqh9zaVqZ0-18" vertex="1"><mxGeometry x="40" width="200" height="30" as="geometry"/></mxCell><mxCell id="Pr4hYXEXDhpqh9zaVqZ0-21" value="" style="shape=partialRectangle;html=1;whiteSpace=wrap;collapsible=0;dropTarget=0;pointerEvents=0;fillColor=none;top=0;left=0;bottom=0;right=0;points=[[0,0.5],[1,0.5]];portConstraint=eastwest;" parent="Pr4hYXEXDhpqh9zaVqZ0-2" vertex="1"><mxGeometry y="210" width="240" height="30" as="geometry"/></mxCell><mxCell id="Pr4hYXEXDhpqh9zaVqZ0-22" value="7" style="shape=partialRectangle;html=1;whiteSpace=wrap;connectable=0;fillColor=none;top=0;left=0;bottom=0;right=0;overflow=hidden;" parent="Pr4hYXEXDhpqh9zaVqZ0-21" vertex="1"><mxGeometry width="40" height="30" as="geometry"/></mxCell><mxCell id="Pr4hYXEXDhpqh9zaVqZ0-23" value="phone&amp;nbsp; &amp;nbsp; varchar(20)" style="shape=partialRectangle;html=1;whiteSpace=wrap;connectable=0;fillColor=none;top=0;left=0;bottom=0;right=0;align=left;spacingLeft=6;overflow=hidden;" parent="Pr4hYXEXDhpqh9zaVqZ0-21" vertex="1"><mxGeometry x="40" width="200" height="30" as="geometry"/></mxCell><mxCell id="Pr4hYXEXDhpqh9zaVqZ0-24" value="" style="shape=partialRectangle;html=1;whiteSpace=wrap;collapsible=0;dropTarget=0;pointerEvents=0;fillColor=none;top=0;left=0;bottom=0;right=0;points=[[0,0.5],[1,0.5]];portConstraint=eastwest;" parent="Pr4hYXEXDhpqh9zaVqZ0-2" vertex="1"><mxGeometry y="240" width="240" height="30" as="geometry"/></mxCell><mxCell id="Pr4hYXEXDhpqh9zaVqZ0-25" value="8" style="shape=partialRectangle;html=1;whiteSpace=wrap;connectable=0;fillColor=none;top=0;left=0;bottom=0;right=0;overflow=hidden;" parent="Pr4hYXEXDhpqh9zaVqZ0-24" vertex="1"><mxGeometry width="40" height="30" as="geometry"/></mxCell><mxCell id="Pr4hYXEXDhpqh9zaVqZ0-26" value="is_active bool default true" style="shape=partialRectangle;html=1;whiteSpace=wrap;connectable=0;fillColor=none;top=0;left=0;bottom=0;right=0;align=left;spacingLeft=6;overflow=hidden;" parent="Pr4hYXEXDhpqh9zaVqZ0-24" vertex="1"><mxGeometry x="40" width="200" height="30" as="geometry"/></mxCell><mxCell id="Pr4hYXEXDhpqh9zaVqZ0-27" value="office" style="shape=table;html=1;whiteSpace=wrap;startSize=30;container=1;collapsible=0;childLayout=tableLayout;fixedRows=1;rowLines=0;fontStyle=1;align=center;" parent="Pr4hYXEXDhpqh9zaVqZ0-1" vertex="1"><mxGeometry x="360" y="40" width="240" height="210" as="geometry"/></mxCell><mxCell id="Pr4hYXEXDhpqh9zaVqZ0-28" value="" style="shape=partialRectangle;html=1;whiteSpace=wrap;collapsible=0;dropTarget=0;pointerEvents=0;fillColor=none;top=0;left=0;bottom=1;right=0;points=[[0,0.5],[1,0.5]];portConstraint=eastwest;" parent="Pr4hYXEXDhpqh9zaVqZ0-27" vertex="1"><mxGeometry y="30" width="240" height="30" as="geometry"/></mxCell><mxCell id="Pr4hYXEXDhpqh9zaVqZ0-29" value="1" style="shape=partialRectangle;html=1;whiteSpace=wrap;connectable=0;fillColor=none;top=0;left=0;bottom=0;right=0;overflow=hidden;" parent="Pr4hYXEXDhpqh9zaVqZ0-28" vertex="1"><mxGeometry width="40" height="30" as="geometry"/></mxCell><mxCell id="Pr4hYXEXDhpqh9zaVqZ0-30" value="id&amp;nbsp; &amp;nbsp; bigint auto_increment PK" style="shape=partialRectangle;html=1;whiteSpace=wrap;connectable=0;fillColor=none;top=0;left=0;bottom=0;right=0;align=left;spacingLeft=6;overflow=hidden;" parent="Pr4hYXEXDhpqh9zaVqZ0-28" vertex="1"><mxGeometry x="40" width="200" height="30" as="geometry"/></mxCell><mxCell id="Pr4hYXEXDhpqh9zaVqZ0-31" value="" style="shape=partialRectangle;html=1;whiteSpace=wrap;collapsible=0;dropTarget=0;pointerEvents=0;fillColor=none;top=0;left=0;bottom=0;right=0;points=[[0,0.5],[1,0.5]];portConstraint=eastwest;" parent="Pr4hYXEXDhpqh9zaVqZ0-27" vertex="1"><mxGeometry y="60" width="240" height="30" as="geometry"/></mxCell><mxCell id="Pr4hYXEXDhpqh9zaVqZ0-32" value="2" style="shape=partialRectangle;html=1;whiteSpace=wrap;connectable=0;fillColor=none;top=0;left=0;bottom=0;right=0;overflow=hidden;" parent="Pr4hYXEXDhpqh9zaVqZ0-31" vertex="1"><mxGeometry width="40" height="30" as="geometry"/></mxCell><mxCell id="Pr4hYXEXDhpqh9zaVqZ0-33" value="organization_Id&amp;nbsp; &amp;nbsp; bigint not null FK" style="shape=partialRectangle;html=1;whiteSpace=wrap;connectable=0;fillColor=none;top=0;left=0;bottom=0;right=0;align=left;spacingLeft=6;overflow=hidden;" parent="Pr4hYXEXDhpqh9zaVqZ0-31" vertex="1"><mxGeometry x="40" width="200" height="30" as="geometry"/></mxCell><mxCell id="Pr4hYXEXDhpqh9zaVqZ0-34" value="" style="shape=partialRectangle;html=1;whiteSpace=wrap;collapsible=0;dropTarget=0;pointerEvents=0;fillColor=none;top=0;left=0;bottom=0;right=0;points=[[0,0.5],[1,0.5]];portConstraint=eastwest;" parent="Pr4hYXEXDhpqh9zaVqZ0-27" vertex="1"><mxGeometry y="90" width="240" height="30" as="geometry"/></mxCell><mxCell id="Pr4hYXEXDhpqh9zaVqZ0-35" value="3" style="shape=partialRectangle;html=1;whiteSpace=wrap;connectable=0;fillColor=none;top=0;left=0;bottom=0;right=0;overflow=hidden;" parent="Pr4hYXEXDhpqh9zaVqZ0-34" vertex="1"><mxGeometry width="40" height="30" as="geometry"/></mxCell><mxCell id="Pr4hYXEXDhpqh9zaVqZ0-36" value="name&amp;nbsp; &amp;nbsp; nvarchar(45)" style="shape=partialRectangle;html=1;whiteSpace=wrap;connectable=0;fillColor=none;top=0;left=0;bottom=0;right=0;align=left;spacingLeft=6;overflow=hidden;" parent="Pr4hYXEXDhpqh9zaVqZ0-34" vertex="1"><mxGeometry x="40" width="200" height="30" as="geometry"/></mxCell><mxCell id="Pr4hYXEXDhpqh9zaVqZ0-37" value="" style="shape=partialRectangle;html=1;whiteSpace=wrap;collapsible=0;dropTarget=0;pointerEvents=0;fillColor=none;top=0;left=0;bottom=0;right=0;points=[[0,0.5],[1,0.5]];portConstraint=eastwest;" parent="Pr4hYXEXDhpqh9zaVqZ0-27" vertex="1"><mxGeometry y="120" width="240" height="30" as="geometry"/></mxCell><mxCell id="Pr4hYXEXDhpqh9zaVqZ0-38" value="4" style="shape=partialRectangle;html=1;whiteSpace=wrap;connectable=0;fillColor=none;top=0;left=0;bottom=0;right=0;overflow=hidden;" parent="Pr4hYXEXDhpqh9zaVqZ0-37" vertex="1"><mxGeometry width="40" height="30" as="geometry"/></mxCell><mxCell id="Pr4hYXEXDhpqh9zaVqZ0-39" value="address&amp;nbsp; &amp;nbsp; nvarchar(255)" style="shape=partialRectangle;html=1;whiteSpace=wrap;connectable=0;fillColor=none;top=0;left=0;bottom=0;right=0;align=left;spacingLeft=6;overflow=hidden;" parent="Pr4hYXEXDhpqh9zaVqZ0-37" vertex="1"><mxGeometry x="40" width="200" height="30" as="geometry"/></mxCell><mxCell id="Pr4hYXEXDhpqh9zaVqZ0-40" value="" style="shape=partialRectangle;html=1;whiteSpace=wrap;collapsible=0;dropTarget=0;pointerEvents=0;fillColor=none;top=0;left=0;bottom=1;right=0;points=[[0,0.5],[1,0.5]];portConstraint=eastwest;" parent="Pr4hYXEXDhpqh9zaVqZ0-27" vertex="1"><mxGeometry y="150" width="240" height="30" as="geometry"/></mxCell><mxCell id="Pr4hYXEXDhpqh9zaVqZ0-41" value="5" style="shape=partialRectangle;html=1;whiteSpace=wrap;connectable=0;fillColor=none;top=0;left=0;bottom=0;right=0;overflow=hidden;" parent="Pr4hYXEXDhpqh9zaVqZ0-40" vertex="1"><mxGeometry width="40" height="30" as="geometry"/></mxCell><mxCell id="Pr4hYXEXDhpqh9zaVqZ0-42" value="phone&amp;nbsp; &amp;nbsp; varchar(20)" style="shape=partialRectangle;html=1;whiteSpace=wrap;connectable=0;fillColor=none;top=0;left=0;bottom=0;right=0;align=left;spacingLeft=6;overflow=hidden;" parent="Pr4hYXEXDhpqh9zaVqZ0-40" vertex="1"><mxGeometry x="40" width="200" height="30" as="geometry"/></mxCell><mxCell id="Pr4hYXEXDhpqh9zaVqZ0-43" value="" style="shape=partialRectangle;html=1;whiteSpace=wrap;collapsible=0;dropTarget=0;pointerEvents=0;fillColor=none;top=0;left=0;bottom=0;right=0;points=[[0,0.5],[1,0.5]];portConstraint=eastwest;" parent="Pr4hYXEXDhpqh9zaVqZ0-27" vertex="1"><mxGeometry y="180" width="240" height="30" as="geometry"/></mxCell><mxCell id="Pr4hYXEXDhpqh9zaVqZ0-44" value="6" style="shape=partialRectangle;html=1;whiteSpace=wrap;connectable=0;fillColor=none;top=0;left=0;bottom=0;right=0;overflow=hidden;" parent="Pr4hYXEXDhpqh9zaVqZ0-43" vertex="1"><mxGeometry width="40" height="30" as="geometry"/></mxCell><mxCell id="Pr4hYXEXDhpqh9zaVqZ0-45" value="is_active&amp;nbsp; &amp;nbsp; bool default true" style="shape=partialRectangle;html=1;whiteSpace=wrap;connectable=0;fillColor=none;top=0;left=0;bottom=0;right=0;align=left;spacingLeft=6;overflow=hidden;" parent="Pr4hYXEXDhpqh9zaVqZ0-43" vertex="1"><mxGeometry x="40" width="200" height="30" as="geometry"/></mxCell><mxCell id="Pr4hYXEXDhpqh9zaVqZ0-47" value="user" style="shape=table;html=1;whiteSpace=wrap;startSize=30;container=1;collapsible=0;childLayout=tableLayout;fixedRows=1;rowLines=0;fontStyle=1;align=center;" parent="Pr4hYXEXDhpqh9zaVqZ0-1" vertex="1"><mxGeometry x="680" y="40" width="240" height="330" as="geometry"/></mxCell><mxCell id="Pr4hYXEXDhpqh9zaVqZ0-48" value="" style="shape=partialRectangle;html=1;whiteSpace=wrap;collapsible=0;dropTarget=0;pointerEvents=0;fillColor=none;top=0;left=0;bottom=1;right=0;points=[[0,0.5],[1,0.5]];portConstraint=eastwest;" parent="Pr4hYXEXDhpqh9zaVqZ0-47" vertex="1"><mxGeometry y="30" width="240" height="30" as="geometry"/></mxCell><mxCell id="Pr4hYXEXDhpqh9zaVqZ0-49" value="1" style="shape=partialRectangle;html=1;whiteSpace=wrap;connectable=0;fillColor=none;top=0;left=0;bottom=0;right=0;overflow=hidden;" parent="Pr4hYXEXDhpqh9zaVqZ0-48" vertex="1"><mxGeometry width="40" height="30" as="geometry"/></mxCell><mxCell id="Pr4hYXEXDhpqh9zaVqZ0-50" value="id&amp;nbsp; &amp;nbsp; bigint auto_increment PK" style="shape=partialRectangle;html=1;whiteSpace=wrap;connectable=0;fillColor=none;top=0;left=0;bottom=0;right=0;align=left;spacingLeft=6;overflow=hidden;" parent="Pr4hYXEXDhpqh9zaVqZ0-48" vertex="1"><mxGeometry x="40" width="200" height="30" as="geometry"/></mxCell><mxCell id="Pr4hYXEXDhpqh9zaVqZ0-51" value="" style="shape=partialRectangle;html=1;whiteSpace=wrap;collapsible=0;dropTarget=0;pointerEvents=0;fillColor=none;top=0;left=0;bottom=0;right=0;points=[[0,0.5],[1,0.5]];portConstraint=eastwest;" parent="Pr4hYXEXDhpqh9zaVqZ0-47" vertex="1"><mxGeometry y="60" width="240" height="30" as="geometry"/></mxCell><mxCell id="Pr4hYXEXDhpqh9zaVqZ0-52" value="2" style="shape=partialRectangle;html=1;whiteSpace=wrap;connectable=0;fillColor=none;top=0;left=0;bottom=0;right=0;overflow=hidden;" parent="Pr4hYXEXDhpqh9zaVqZ0-51" vertex="1"><mxGeometry width="40" height="30" as="geometry"/></mxCell><mxCell id="Pr4hYXEXDhpqh9zaVqZ0-53" value="office_id&amp;nbsp; &amp;nbsp; bigint not null FK" style="shape=partialRectangle;html=1;whiteSpace=wrap;connectable=0;fillColor=none;top=0;left=0;bottom=0;right=0;align=left;spacingLeft=6;overflow=hidden;" parent="Pr4hYXEXDhpqh9zaVqZ0-51" vertex="1"><mxGeometry x="40" width="200" height="30" as="geometry"/></mxCell><mxCell id="Pr4hYXEXDhpqh9zaVqZ0-54" value="" style="shape=partialRectangle;html=1;whiteSpace=wrap;collapsible=0;dropTarget=0;pointerEvents=0;fillColor=none;top=0;left=0;bottom=0;right=0;points=[[0,0.5],[1,0.5]];portConstraint=eastwest;" parent="Pr4hYXEXDhpqh9zaVqZ0-47" vertex="1"><mxGeometry y="90" width="240" height="30" as="geometry"/></mxCell><mxCell id="Pr4hYXEXDhpqh9zaVqZ0-55" value="3" style="shape=partialRectangle;html=1;whiteSpace=wrap;connectable=0;fillColor=none;top=0;left=0;bottom=0;right=0;overflow=hidden;" parent="Pr4hYXEXDhpqh9zaVqZ0-54" vertex="1"><mxGeometry width="40" height="30" as="geometry"/></mxCell><mxCell id="Pr4hYXEXDhpqh9zaVqZ0-56" value="first_name&amp;nbsp; &amp;nbsp; nvarchar(25) not null" style="shape=partialRectangle;html=1;whiteSpace=wrap;connectable=0;fillColor=none;top=0;left=0;bottom=0;right=0;align=left;spacingLeft=6;overflow=hidden;" parent="Pr4hYXEXDhpqh9zaVqZ0-54" vertex="1"><mxGeometry x="40" width="200" height="30" as="geometry"/></mxCell><mxCell id="Pr4hYXEXDhpqh9zaVqZ0-57" value="" style="shape=partialRectangle;html=1;whiteSpace=wrap;collapsible=0;dropTarget=0;pointerEvents=0;fillColor=none;top=0;left=0;bottom=0;right=0;points=[[0,0.5],[1,0.5]];portConstraint=eastwest;" parent="Pr4hYXEXDhpqh9zaVqZ0-47" vertex="1"><mxGeometry y="120" width="240" height="30" as="geometry"/></mxCell><mxCell id="Pr4hYXEXDhpqh9zaVqZ0-58" value="4" style="shape=partialRectangle;html=1;whiteSpace=wrap;connectable=0;fillColor=none;top=0;left=0;bottom=0;right=0;overflow=hidden;" parent="Pr4hYXEXDhpqh9zaVqZ0-57" vertex="1"><mxGeometry width="40" height="30" as="geometry"/></mxCell><mxCell id="Pr4hYXEXDhpqh9zaVqZ0-59" value="second_name&amp;nbsp; &amp;nbsp; nvarchar(25)" style="shape=partialRectangle;html=1;whiteSpace=wrap;connectable=0;fillColor=none;top=0;left=0;bottom=0;right=0;align=left;spacingLeft=6;overflow=hidden;" parent="Pr4hYXEXDhpqh9zaVqZ0-57" vertex="1"><mxGeometry x="40" width="200" height="30" as="geometry"/></mxCell><mxCell id="Pr4hYXEXDhpqh9zaVqZ0-60" value="" style="shape=partialRectangle;html=1;whiteSpace=wrap;collapsible=0;dropTarget=0;pointerEvents=0;fillColor=none;top=0;left=0;bottom=1;right=0;points=[[0,0.5],[1,0.5]];portConstraint=eastwest;" parent="Pr4hYXEXDhpqh9zaVqZ0-47" vertex="1"><mxGeometry y="150" width="240" height="30" as="geometry"/></mxCell><mxCell id="Pr4hYXEXDhpqh9zaVqZ0-61" value="5" style="shape=partialRectangle;html=1;whiteSpace=wrap;connectable=0;fillColor=none;top=0;left=0;bottom=0;right=0;overflow=hidden;" parent="Pr4hYXEXDhpqh9zaVqZ0-60" vertex="1"><mxGeometry width="40" height="30" as="geometry"/></mxCell><mxCell id="Pr4hYXEXDhpqh9zaVqZ0-62" value="middle_name&amp;nbsp; &amp;nbsp; nvarchar(25)" style="shape=partialRectangle;html=1;whiteSpace=wrap;connectable=0;fillColor=none;top=0;left=0;bottom=0;right=0;align=left;spacingLeft=6;overflow=hidden;" parent="Pr4hYXEXDhpqh9zaVqZ0-60" vertex="1"><mxGeometry x="40" width="200" height="30" as="geometry"/></mxCell><mxCell id="Pr4hYXEXDhpqh9zaVqZ0-63" value="" style="shape=partialRectangle;html=1;whiteSpace=wrap;collapsible=0;dropTarget=0;pointerEvents=0;fillColor=none;top=0;left=0;bottom=0;right=0;points=[[0,0.5],[1,0.5]];portConstraint=eastwest;" parent="Pr4hYXEXDhpqh9zaVqZ0-47" vertex="1"><mxGeometry y="180" width="240" height="30" as="geometry"/></mxCell><mxCell id="Pr4hYXEXDhpqh9zaVqZ0-64" value="6" style="shape=partialRectangle;html=1;whiteSpace=wrap;connectable=0;fillColor=none;top=0;left=0;bottom=0;right=0;overflow=hidden;" parent="Pr4hYXEXDhpqh9zaVqZ0-63" vertex="1"><mxGeometry width="40" height="30" as="geometry"/></mxCell><mxCell id="Pr4hYXEXDhpqh9zaVqZ0-65" value="position&amp;nbsp; &amp;nbsp; nvarchar(25) not null" style="shape=partialRectangle;html=1;whiteSpace=wrap;connectable=0;fillColor=none;top=0;left=0;bottom=0;right=0;align=left;spacingLeft=6;overflow=hidden;" parent="Pr4hYXEXDhpqh9zaVqZ0-63" vertex="1"><mxGeometry x="40" width="200" height="30" as="geometry"/></mxCell><mxCell id="Pr4hYXEXDhpqh9zaVqZ0-66" value="" style="shape=partialRectangle;html=1;whiteSpace=wrap;collapsible=0;dropTarget=0;pointerEvents=0;fillColor=none;top=0;left=0;bottom=0;right=0;points=[[0,0.5],[1,0.5]];portConstraint=eastwest;" parent="Pr4hYXEXDhpqh9zaVqZ0-47" vertex="1"><mxGeometry y="210" width="240" height="30" as="geometry"/></mxCell><mxCell id="Pr4hYXEXDhpqh9zaVqZ0-67" value="7" style="shape=partialRectangle;html=1;whiteSpace=wrap;connectable=0;fillColor=none;top=0;left=0;bottom=0;right=0;overflow=hidden;" parent="Pr4hYXEXDhpqh9zaVqZ0-66" vertex="1"><mxGeometry width="40" height="30" as="geometry"/></mxCell><mxCell id="Pr4hYXEXDhpqh9zaVqZ0-68" value="phone&amp;nbsp; &amp;nbsp; varchar(20)" style="shape=partialRectangle;html=1;whiteSpace=wrap;connectable=0;fillColor=none;top=0;left=0;bottom=0;right=0;align=left;spacingLeft=6;overflow=hidden;" parent="Pr4hYXEXDhpqh9zaVqZ0-66" vertex="1"><mxGeometry x="40" width="200" height="30" as="geometry"/></mxCell><mxCell id="Pr4hYXEXDhpqh9zaVqZ0-69" value="" style="shape=partialRectangle;html=1;whiteSpace=wrap;collapsible=0;dropTarget=0;pointerEvents=0;fillColor=none;top=0;left=0;bottom=0;right=0;points=[[0,0.5],[1,0.5]];portConstraint=eastwest;" parent="Pr4hYXEXDhpqh9zaVqZ0-47" vertex="1"><mxGeometry y="240" width="240" height="30" as="geometry"/></mxCell><mxCell id="Pr4hYXEXDhpqh9zaVqZ0-70" value="8" style="shape=partialRectangle;html=1;whiteSpace=wrap;connectable=0;fillColor=none;top=0;left=0;bottom=0;right=0;overflow=hidden;" parent="Pr4hYXEXDhpqh9zaVqZ0-69" vertex="1"><mxGeometry width="40" height="30" as="geometry"/></mxCell><mxCell id="Pr4hYXEXDhpqh9zaVqZ0-71" value="user_document_id&amp;nbsp; &amp;nbsp; bigint&amp;nbsp;" style="shape=partialRectangle;html=1;whiteSpace=wrap;connectable=0;fillColor=none;top=0;left=0;bottom=0;right=0;align=left;spacingLeft=6;overflow=hidden;" parent="Pr4hYXEXDhpqh9zaVqZ0-69" vertex="1"><mxGeometry x="40" width="200" height="30" as="geometry"/></mxCell><mxCell id="Pr4hYXEXDhpqh9zaVqZ0-72" value="" style="shape=partialRectangle;html=1;whiteSpace=wrap;collapsible=0;dropTarget=0;pointerEvents=0;fillColor=none;top=0;left=0;bottom=0;right=0;points=[[0,0.5],[1,0.5]];portConstraint=eastwest;" parent="Pr4hYXEXDhpqh9zaVqZ0-47" vertex="1"><mxGeometry y="270" width="240" height="30" as="geometry"/></mxCell><mxCell id="Pr4hYXEXDhpqh9zaVqZ0-73" value="9" style="shape=partialRectangle;html=1;whiteSpace=wrap;connectable=0;fillColor=none;top=0;left=0;bottom=0;right=0;overflow=hidden;" parent="Pr4hYXEXDhpqh9zaVqZ0-72" vertex="1"><mxGeometry width="40" height="30" as="geometry"/></mxCell><mxCell id="Pr4hYXEXDhpqh9zaVqZ0-74" value="country_id&amp;nbsp; &amp;nbsp; int FK" style="shape=partialRectangle;html=1;whiteSpace=wrap;connectable=0;fillColor=none;top=0;left=0;bottom=0;right=0;align=left;spacingLeft=6;overflow=hidden;" parent="Pr4hYXEXDhpqh9zaVqZ0-72" vertex="1"><mxGeometry x="40" width="200" height="30" as="geometry"/></mxCell><mxCell id="Pr4hYXEXDhpqh9zaVqZ0-75" value="" style="shape=partialRectangle;html=1;whiteSpace=wrap;collapsible=0;dropTarget=0;pointerEvents=0;fillColor=none;top=0;left=0;bottom=1;right=0;points=[[0,0.5],[1,0.5]];portConstraint=eastwest;" parent="Pr4hYXEXDhpqh9zaVqZ0-47" vertex="1"><mxGeometry y="300" width="240" height="30" as="geometry"/></mxCell><mxCell id="Pr4hYXEXDhpqh9zaVqZ0-76" value="10" style="shape=partialRectangle;html=1;whiteSpace=wrap;connectable=0;fillColor=none;top=0;left=0;bottom=0;right=0;overflow=hidden;" parent="Pr4hYXEXDhpqh9zaVqZ0-75" vertex="1"><mxGeometry width="40" height="30" as="geometry"/></mxCell><mxCell id="Pr4hYXEXDhpqh9zaVqZ0-77" value="is_identified&amp;nbsp; &amp;nbsp; bool default false" style="shape=partialRectangle;html=1;whiteSpace=wrap;connectable=0;fillColor=none;top=0;left=0;bottom=0;right=0;align=left;spacingLeft=6;overflow=hidden;" parent="Pr4hYXEXDhpqh9zaVqZ0-75" vertex="1"><mxGeometry x="40" width="200" height="30" as="geometry"/></mxCell><mxCell id="Pr4hYXEXDhpqh9zaVqZ0-79" value="country" style="shape=table;html=1;whiteSpace=wrap;startSize=30;container=1;collapsible=0;childLayout=tableLayout;fixedRows=1;rowLines=0;fontStyle=1;align=center;" parent="Pr4hYXEXDhpqh9zaVqZ0-1" vertex="1"><mxGeometry x="40" y="400" width="240" height="120" as="geometry"/></mxCell><mxCell id="Pr4hYXEXDhpqh9zaVqZ0-80" value="" style="shape=partialRectangle;html=1;whiteSpace=wrap;collapsible=0;dropTarget=0;pointerEvents=0;fillColor=none;top=0;left=0;bottom=1;right=0;points=[[0,0.5],[1,0.5]];portConstraint=eastwest;" parent="Pr4hYXEXDhpqh9zaVqZ0-79" vertex="1"><mxGeometry y="30" width="240" height="30" as="geometry"/></mxCell><mxCell id="Pr4hYXEXDhpqh9zaVqZ0-81" value="1" style="shape=partialRectangle;html=1;whiteSpace=wrap;connectable=0;fillColor=none;top=0;left=0;bottom=0;right=0;overflow=hidden;" parent="Pr4hYXEXDhpqh9zaVqZ0-80" vertex="1"><mxGeometry width="53" height="30" as="geometry"/></mxCell><mxCell id="Pr4hYXEXDhpqh9zaVqZ0-82" value="id&amp;nbsp; &amp;nbsp; int auto_increment PK" style="shape=partialRectangle;html=1;whiteSpace=wrap;connectable=0;fillColor=none;top=0;left=0;bottom=0;right=0;align=left;spacingLeft=6;overflow=hidden;" parent="Pr4hYXEXDhpqh9zaVqZ0-80" vertex="1"><mxGeometry x="53" width="187" height="30" as="geometry"/></mxCell><mxCell id="Pr4hYXEXDhpqh9zaVqZ0-83" value="" style="shape=partialRectangle;html=1;whiteSpace=wrap;collapsible=0;dropTarget=0;pointerEvents=0;fillColor=none;top=0;left=0;bottom=0;right=0;points=[[0,0.5],[1,0.5]];portConstraint=eastwest;" parent="Pr4hYXEXDhpqh9zaVqZ0-79" vertex="1"><mxGeometry y="60" width="240" height="30" as="geometry"/></mxCell><mxCell id="Pr4hYXEXDhpqh9zaVqZ0-84" value="2" style="shape=partialRectangle;html=1;whiteSpace=wrap;connectable=0;fillColor=none;top=0;left=0;bottom=0;right=0;overflow=hidden;" parent="Pr4hYXEXDhpqh9zaVqZ0-83" vertex="1"><mxGeometry width="53" height="30" as="geometry"/></mxCell><mxCell id="Pr4hYXEXDhpqh9zaVqZ0-85" value="name&amp;nbsp; &amp;nbsp; nvarchar(45) not null" style="shape=partialRectangle;html=1;whiteSpace=wrap;connectable=0;fillColor=none;top=0;left=0;bottom=0;right=0;align=left;spacingLeft=6;overflow=hidden;" parent="Pr4hYXEXDhpqh9zaVqZ0-83" vertex="1"><mxGeometry x="53" width="187" height="30" as="geometry"/></mxCell><mxCell id="Pr4hYXEXDhpqh9zaVqZ0-86" value="" style="shape=partialRectangle;html=1;whiteSpace=wrap;collapsible=0;dropTarget=0;pointerEvents=0;fillColor=none;top=0;left=0;bottom=0;right=0;points=[[0,0.5],[1,0.5]];portConstraint=eastwest;" parent="Pr4hYXEXDhpqh9zaVqZ0-79" vertex="1"><mxGeometry y="90" width="240" height="30" as="geometry"/></mxCell><mxCell id="Pr4hYXEXDhpqh9zaVqZ0-87" value="3" style="shape=partialRectangle;html=1;whiteSpace=wrap;connectable=0;fillColor=none;top=0;left=0;bottom=0;right=0;overflow=hidden;" parent="Pr4hYXEXDhpqh9zaVqZ0-86" vertex="1"><mxGeometry width="53" height="30" as="geometry"/></mxCell><mxCell id="Pr4hYXEXDhpqh9zaVqZ0-88" value="code varchar(3)" style="shape=partialRectangle;html=1;whiteSpace=wrap;connectable=0;fillColor=none;top=0;left=0;bottom=0;right=0;align=left;spacingLeft=6;overflow=hidden;" parent="Pr4hYXEXDhpqh9zaVqZ0-86" vertex="1"><mxGeometry x="53" width="187" height="30" as="geometry"/></mxCell><mxCell id="Pr4hYXEXDhpqh9zaVqZ0-89" value="document" style="shape=table;html=1;whiteSpace=wrap;startSize=30;container=1;collapsible=0;childLayout=tableLayout;fixedRows=1;rowLines=0;fontStyle=1;align=center;" parent="Pr4hYXEXDhpqh9zaVqZ0-1" vertex="1"><mxGeometry x="40" y="600" width="240" height="120" as="geometry"/></mxCell><mxCell id="Pr4hYXEXDhpqh9zaVqZ0-90" value="" style="shape=partialRectangle;html=1;whiteSpace=wrap;collapsible=0;dropTarget=0;pointerEvents=0;fillColor=none;top=0;left=0;bottom=1;right=0;points=[[0,0.5],[1,0.5]];portConstraint=eastwest;" parent="Pr4hYXEXDhpqh9zaVqZ0-89" vertex="1"><mxGeometry y="30" width="240" height="30" as="geometry"/></mxCell><mxCell id="Pr4hYXEXDhpqh9zaVqZ0-91" value="1" style="shape=partialRectangle;html=1;whiteSpace=wrap;connectable=0;fillColor=none;top=0;left=0;bottom=0;right=0;overflow=hidden;" parent="Pr4hYXEXDhpqh9zaVqZ0-90" vertex="1"><mxGeometry width="53" height="30" as="geometry"/></mxCell><mxCell id="Pr4hYXEXDhpqh9zaVqZ0-92" value="id&amp;nbsp; &amp;nbsp; int auto_increment" style="shape=partialRectangle;html=1;whiteSpace=wrap;connectable=0;fillColor=none;top=0;left=0;bottom=0;right=0;align=left;spacingLeft=6;overflow=hidden;" parent="Pr4hYXEXDhpqh9zaVqZ0-90" vertex="1"><mxGeometry x="53" width="187" height="30" as="geometry"/></mxCell><mxCell id="Pr4hYXEXDhpqh9zaVqZ0-93" value="" style="shape=partialRectangle;html=1;whiteSpace=wrap;collapsible=0;dropTarget=0;pointerEvents=0;fillColor=none;top=0;left=0;bottom=0;right=0;points=[[0,0.5],[1,0.5]];portConstraint=eastwest;" parent="Pr4hYXEXDhpqh9zaVqZ0-89" vertex="1"><mxGeometry y="60" width="240" height="30" as="geometry"/></mxCell><mxCell id="Pr4hYXEXDhpqh9zaVqZ0-94" value="2" style="shape=partialRectangle;html=1;whiteSpace=wrap;connectable=0;fillColor=none;top=0;left=0;bottom=0;right=0;overflow=hidden;" parent="Pr4hYXEXDhpqh9zaVqZ0-93" vertex="1"><mxGeometry width="53" height="30" as="geometry"/></mxCell><mxCell id="Pr4hYXEXDhpqh9zaVqZ0-95" value="name&amp;nbsp; &amp;nbsp; nvarchar(45) not null" style="shape=partialRectangle;html=1;whiteSpace=wrap;connectable=0;fillColor=none;top=0;left=0;bottom=0;right=0;align=left;spacingLeft=6;overflow=hidden;" parent="Pr4hYXEXDhpqh9zaVqZ0-93" vertex="1"><mxGeometry x="53" width="187" height="30" as="geometry"/></mxCell><mxCell id="Pr4hYXEXDhpqh9zaVqZ0-96" value="" style="shape=partialRectangle;html=1;whiteSpace=wrap;collapsible=0;dropTarget=0;pointerEvents=0;fillColor=none;top=0;left=0;bottom=0;right=0;points=[[0,0.5],[1,0.5]];portConstraint=eastwest;" parent="Pr4hYXEXDhpqh9zaVqZ0-89" vertex="1"><mxGeometry y="90" width="240" height="30" as="geometry"/></mxCell><mxCell id="Pr4hYXEXDhpqh9zaVqZ0-97" value="3" style="shape=partialRectangle;html=1;whiteSpace=wrap;connectable=0;fillColor=none;top=0;left=0;bottom=0;right=0;overflow=hidden;" parent="Pr4hYXEXDhpqh9zaVqZ0-96" vertex="1"><mxGeometry width="53" height="30" as="geometry"/></mxCell><mxCell id="Pr4hYXEXDhpqh9zaVqZ0-98" value="code&amp;nbsp; &amp;nbsp; varchar(2) not null" style="shape=partialRectangle;html=1;whiteSpace=wrap;connectable=0;fillColor=none;top=0;left=0;bottom=0;right=0;align=left;spacingLeft=6;overflow=hidden;" parent="Pr4hYXEXDhpqh9zaVqZ0-96" vertex="1"><mxGeometry x="53" width="187" height="30" as="geometry"/></mxCell><mxCell id="Pr4hYXEXDhpqh9zaVqZ0-99" value="user_document" style="shape=table;html=1;whiteSpace=wrap;startSize=30;container=1;collapsible=0;childLayout=tableLayout;fixedRows=1;rowLines=0;fontStyle=1;align=center;" parent="Pr4hYXEXDhpqh9zaVqZ0-1" vertex="1"><mxGeometry x="360" y="400" width="240" height="180" as="geometry"/></mxCell><mxCell id="Pr4hYXEXDhpqh9zaVqZ0-100" value="" style="shape=partialRectangle;html=1;whiteSpace=wrap;collapsible=0;dropTarget=0;pointerEvents=0;fillColor=none;top=0;left=0;bottom=0;right=0;points=[[0,0.5],[1,0.5]];portConstraint=eastwest;" parent="Pr4hYXEXDhpqh9zaVqZ0-99" vertex="1"><mxGeometry y="30" width="240" height="30" as="geometry"/></mxCell><mxCell id="Pr4hYXEXDhpqh9zaVqZ0-101" value="1" style="shape=partialRectangle;html=1;whiteSpace=wrap;connectable=0;fillColor=none;top=0;left=0;bottom=0;right=0;overflow=hidden;" parent="Pr4hYXEXDhpqh9zaVqZ0-100" vertex="1"><mxGeometry width="40" height="30" as="geometry"/></mxCell><mxCell id="Pr4hYXEXDhpqh9zaVqZ0-102" value="id&amp;nbsp; &amp;nbsp; bigint auto_increment PK" style="shape=partialRectangle;html=1;whiteSpace=wrap;connectable=0;fillColor=none;top=0;left=0;bottom=0;right=0;align=left;spacingLeft=6;overflow=hidden;" parent="Pr4hYXEXDhpqh9zaVqZ0-100" vertex="1"><mxGeometry x="40" width="200" height="30" as="geometry"/></mxCell><mxCell id="hOKdUmy-NvpFdPPe2BJT-128" value="" style="shape=partialRectangle;html=1;whiteSpace=wrap;collapsible=0;dropTarget=0;pointerEvents=0;fillColor=none;top=0;left=0;bottom=0;right=0;points=[[0,0.5],[1,0.5]];portConstraint=eastwest;" parent="Pr4hYXEXDhpqh9zaVqZ0-99" vertex="1"><mxGeometry y="60" width="240" height="30" as="geometry"/></mxCell><mxCell id="hOKdUmy-NvpFdPPe2BJT-129" value="1" style="shape=partialRectangle;html=1;whiteSpace=wrap;connectable=0;fillColor=none;top=0;left=0;bottom=0;right=0;overflow=hidden;" parent="hOKdUmy-NvpFdPPe2BJT-128" vertex="1"><mxGeometry width="40" height="30" as="geometry"/></mxCell><mxCell id="hOKdUmy-NvpFdPPe2BJT-130" value="user_id&amp;nbsp; &amp;nbsp; bigint not null FK" style="shape=partialRectangle;html=1;whiteSpace=wrap;connectable=0;fillColor=none;top=0;left=0;bottom=0;right=0;align=left;spacingLeft=6;overflow=hidden;" parent="hOKdUmy-NvpFdPPe2BJT-128" vertex="1"><mxGeometry x="40" width="200" height="30" as="geometry"/></mxCell><mxCell id="Pr4hYXEXDhpqh9zaVqZ0-103" value="" style="shape=partialRectangle;html=1;whiteSpace=wrap;collapsible=0;dropTarget=0;pointerEvents=0;fillColor=none;top=0;left=0;bottom=0;right=0;points=[[0,0.5],[1,0.5]];portConstraint=eastwest;" parent="Pr4hYXEXDhpqh9zaVqZ0-99" vertex="1"><mxGeometry y="90" width="240" height="30" as="geometry"/></mxCell><mxCell id="Pr4hYXEXDhpqh9zaVqZ0-104" value="2" style="shape=partialRectangle;html=1;whiteSpace=wrap;connectable=0;fillColor=none;top=0;left=0;bottom=0;right=0;overflow=hidden;" parent="Pr4hYXEXDhpqh9zaVqZ0-103" vertex="1"><mxGeometry width="40" height="30" as="geometry"/></mxCell><mxCell id="Pr4hYXEXDhpqh9zaVqZ0-105" value="document_id&amp;nbsp; &amp;nbsp; int not null FK" style="shape=partialRectangle;html=1;whiteSpace=wrap;connectable=0;fillColor=none;top=0;left=0;bottom=0;right=0;align=left;spacingLeft=6;overflow=hidden;" parent="Pr4hYXEXDhpqh9zaVqZ0-103" vertex="1"><mxGeometry x="40" width="200" height="30" as="geometry"/></mxCell><mxCell id="Pr4hYXEXDhpqh9zaVqZ0-106" value="" style="shape=partialRectangle;html=1;whiteSpace=wrap;collapsible=0;dropTarget=0;pointerEvents=0;fillColor=none;top=0;left=0;bottom=0;right=0;points=[[0,0.5],[1,0.5]];portConstraint=eastwest;" parent="Pr4hYXEXDhpqh9zaVqZ0-99" vertex="1"><mxGeometry y="120" width="240" height="30" as="geometry"/></mxCell><mxCell id="Pr4hYXEXDhpqh9zaVqZ0-107" value="3" style="shape=partialRectangle;html=1;whiteSpace=wrap;connectable=0;fillColor=none;top=0;left=0;bottom=0;right=0;overflow=hidden;" parent="Pr4hYXEXDhpqh9zaVqZ0-106" vertex="1"><mxGeometry width="40" height="30" as="geometry"/></mxCell><mxCell id="Pr4hYXEXDhpqh9zaVqZ0-108" value="serial_number&amp;nbsp; &amp;nbsp; varchar(25) not null" style="shape=partialRectangle;html=1;whiteSpace=wrap;connectable=0;fillColor=none;top=0;left=0;bottom=0;right=0;align=left;spacingLeft=6;overflow=hidden;" parent="Pr4hYXEXDhpqh9zaVqZ0-106" vertex="1"><mxGeometry x="40" width="200" height="30" as="geometry"/></mxCell><mxCell id="Pr4hYXEXDhpqh9zaVqZ0-109" value="" style="shape=partialRectangle;html=1;whiteSpace=wrap;collapsible=0;dropTarget=0;pointerEvents=0;fillColor=none;top=0;left=0;bottom=1;right=0;points=[[0,0.5],[1,0.5]];portConstraint=eastwest;" parent="Pr4hYXEXDhpqh9zaVqZ0-99" vertex="1"><mxGeometry y="150" width="240" height="30" as="geometry"/></mxCell><mxCell id="Pr4hYXEXDhpqh9zaVqZ0-110" value="4" style="shape=partialRectangle;html=1;whiteSpace=wrap;connectable=0;fillColor=none;top=0;left=0;bottom=0;right=0;overflow=hidden;" parent="Pr4hYXEXDhpqh9zaVqZ0-109" vertex="1"><mxGeometry width="40" height="30" as="geometry"/></mxCell><mxCell id="Pr4hYXEXDhpqh9zaVqZ0-111" value="date_of_issue&amp;nbsp; &amp;nbsp; date not null" style="shape=partialRectangle;html=1;whiteSpace=wrap;connectable=0;fillColor=none;top=0;left=0;bottom=0;right=0;align=left;spacingLeft=6;overflow=hidden;" parent="Pr4hYXEXDhpqh9zaVqZ0-109" vertex="1"><mxGeometry x="40" width="200" height="30" as="geometry"/></mxCell></root></mxGraphModel></diagram></mxfile>